<?xml version="1.0" encoding="UTF-8"?>
<svg version="1.1" xmlns="http://www.w3.org/2000/svg" width="220" height="220">
<path d="M0 0 C4.77463052 0.73203717 7.54283972 3.81396657 11.07421875 6.89453125 C14.15229435 9.109595 17.12109925 10.44729533 20.59350586 11.91723633 C24.72086121 13.77427407 28.55348132 16.12393628 32.4375 18.4375 C38.19036873 21.82180263 43.92402032 25.08718521 49.95703125 27.953125 C52.06206657 29.03180467 53.92928114 30.28312493 55.875 31.625 C61.42689103 35.13970521 67.87774996 37.34137383 74.5 36.79296875 C81.62068881 34.97766157 87.85911961 30.85531377 94.11279297 27.11914062 C97.27842615 25.2418751 100.48086106 23.43107465 103.6875 21.625 C104.34121582 21.25584473 104.99493164 20.88668945 105.66845703 20.50634766 C111.82766144 17.05132869 118.07608718 13.7707561 124.35424805 10.53759766 C128.80969069 8.22580686 133.0776454 5.76390874 137.2734375 3.00610352 C139.45371901 1.73560859 141.49669562 1.23468479 144 1 C146.34291982 4.68349105 146.2213487 7.80952496 146.16699219 12.10766602 C146.16074326 12.81544189 146.15449432 13.52321777 146.14805603 14.25244141 C146.12462131 16.58651134 146.08622252 18.92005432 146.046875 21.25390625 C146.0257724 22.87767258 146.00529375 24.50144713 145.9854126 26.12522888 C145.94142741 29.52559479 145.89006961 32.92574864 145.83349609 36.32592773 C145.76151528 40.68611227 145.70754664 45.04629889 145.65903854 49.40680027 C145.61982575 52.75859661 145.57125048 56.11020678 145.51981354 59.46183586 C145.49623832 61.06977351 145.47555016 62.67775615 145.45778656 64.28576851 C145.43154329 66.5313585 145.39275052 68.77638864 145.35058594 71.02172852 C145.33122986 72.29983902 145.31187378 73.57794952 145.29193115 74.89479065 C145 78 145 78 143 81 C140.51338291 81.37473011 140.51338291 81.37473011 137.31288147 81.3742218 C136.10282944 81.38123611 134.8927774 81.38825043 133.64605713 81.39547729 C132.29797199 81.38804889 130.94988849 81.38031772 129.60180664 81.37231445 C128.18767529 81.37474138 126.77354566 81.37845975 125.35942078 81.38337708 C121.5122619 81.39280419 117.66535663 81.38334509 113.81821752 81.37004495 C109.79705965 81.35875043 105.77591464 81.36283646 101.75474548 81.36479187 C94.99994755 81.36567558 88.24524983 81.35457921 81.49047852 81.33618164 C73.67653495 81.31502136 65.86273833 81.31150185 58.04877192 81.3177436 C50.53948273 81.32343535 43.03024539 81.31779328 35.52096367 81.30657005 C32.32205689 81.30192067 29.12318178 81.30105169 25.92427254 81.3031559 C22.15763506 81.30503742 18.39114745 81.29694547 14.62454414 81.2810955 C13.24062215 81.2768471 11.85668497 81.27600584 10.47275925 81.27878571 C8.58653332 81.28200012 6.70029866 81.27171434 4.81410217 81.26069641 C3.75755967 81.25864354 2.70101717 81.25659067 1.61245823 81.25447559 C-1 81 -1 81 -4 79 C-4.40545654 76.52444458 -4.40545654 76.52444458 -4.44824219 73.36376953 C-4.47126404 72.18138702 -4.49428589 70.99900452 -4.51800537 69.78079224 C-4.52753235 68.49445892 -4.53705933 67.20812561 -4.546875 65.8828125 C-4.56627814 64.54676664 -4.58682376 63.21073692 -4.60845947 61.87472534 C-4.65089438 59.06527667 -4.68349691 56.25594613 -4.70849609 53.44628906 C-4.74043796 49.87796971 -4.79002926 46.31019766 -4.84641647 42.74218941 C-4.88917965 39.97610172 -4.92542087 37.20995934 -4.9595108 34.44375229 C-4.98371075 32.49870146 -5.01070631 30.55368604 -5.03778076 28.6086731 C-5.23108256 6.07480556 -5.23108256 6.07480556 0 0 Z " fill="#FBFBFB" transform="translate(39,76)"/>
<path d="M0 0 C2.15391676 -0.00204346 4.30782487 -0.00579679 6.46173859 -0.00990677 C21.80805844 -0.03554093 37.10957785 0.04922142 52.4253006 1.12293625 C53.02539825 2.96497726 53.02539825 2.96497726 53.4253006 5.12293625 C50.92117441 9.07456953 48.02416932 11.30431116 44.0503006 13.68543625 C43.50792755 14.01205246 42.9655545 14.33866867 42.40674591 14.67518234 C35.84875883 18.56554378 29.111495 22.15397436 22.380867 25.73450851 C17.21889204 28.50167166 12.33779402 31.464503 7.50196075 34.76600266 C4.5209217 36.71387651 1.45316071 38.21473629 -1.7621994 39.74793625 C-5.26176127 41.42112744 -8.28992913 42.89300761 -11.31298065 45.33387375 C-16.09659101 47.95769835 -20.23490919 47.95322254 -25.5746994 47.12293625 C-29.02434678 45.88551083 -32.02000708 44.16047782 -35.1371994 42.24793625 C-36.88969125 41.22821194 -38.64229771 40.2086846 -40.3950119 39.1893425 C-41.26416229 38.67258957 -42.13331268 38.15583664 -43.02880096 37.62342453 C-46.81129124 35.39412023 -50.66192675 33.29463733 -54.5121994 31.18543625 C-59.43683932 28.46471103 -64.32871107 25.69439741 -69.1918869 22.86512375 C-70.13942841 22.31590256 -71.08696991 21.76668137 -72.06322479 21.20081711 C-73.90717451 20.12970981 -75.74768384 19.05265151 -77.58422089 17.96888351 C-78.42283661 17.48218185 -79.26145233 16.99548019 -80.12548065 16.49403 C-80.8645163 16.0601799 -81.60355194 15.6263298 -82.3649826 15.17933273 C-84.57606537 14.00477963 -84.57606537 14.00477963 -87.20824432 13.63489914 C-90.61412816 12.89806447 -91.65103533 10.90156213 -93.5746994 8.12293625 C-92.8528244 7.87543625 -92.1309494 7.62793625 -91.3871994 7.37293625 C-88.47331662 6.22190754 -88.47331662 6.22190754 -86.0121994 4.06043625 C-81.5644741 0.52506486 -76.72017966 0.92174413 -71.2231369 0.80653 C-70.36477234 0.78565826 -69.50640778 0.76478653 -68.62203217 0.74328232 C-65.73135488 0.67607844 -62.84059503 0.61744164 -59.9496994 0.56043625 C-58.44554474 0.52916641 -58.44554474 0.52916641 -56.91100311 0.49726486 C-37.94158449 0.11274461 -18.97268056 0.01410679 0 0 Z " fill="#FAFAFA" transform="translate(130.57469940185547,61.8770637512207)"/>
<path d="M0 0 C0.66 0.33 1.32 0.66 2 1 C1.36191406 1.39832031 0.72382813 1.79664062 0.06640625 2.20703125 C-0.75988281 2.73683594 -1.58617187 3.26664062 -2.4375 3.8125 C-3.26121094 4.33457031 -4.08492187 4.85664062 -4.93359375 5.39453125 C-7.27827786 6.90960713 -7.27827786 6.90960713 -8 10 C-8.99 9.67 -9.98 9.34 -11 9 C-14.15020361 9.88319294 -14.15020361 9.88319294 -17 11 C-13.84396286 7.49415579 -10.52064805 5.41005398 -6.375 3.1875 C-5.22773438 2.56230469 -4.08046875 1.93710938 -2.8984375 1.29296875 C-1.46371094 0.65294922 -1.46371094 0.65294922 0 0 Z " fill="#D4D8D8" transform="translate(149,94)"/>
<path d="M0 0 C4.31392226 0.4793247 6.16569547 1.7457985 9 5 C7.68 5.33 6.36 5.66 5 6 C3.35 4.02 1.7 2.04 0 0 Z " fill="#D6D9D8" transform="translate(37,70)"/>
<path d="M0 0 C0 0.66 0 1.32 0 2 C-0.99 2 -1.98 2 -3 2 C-3.66 3.32 -4.32 4.64 -5 6 C-6.65 6 -8.3 6 -10 6 C-7.35570758 3.077361 -4.105808 0 0 0 Z " fill="#DEE2E1" transform="translate(132,105)"/>
<path d="M0 0 C1.9375 0.75 1.9375 0.75 4 2 C4.75 4.125 4.75 4.125 5 6 C2.08482708 4.92598892 0.22189824 4.22189824 -2 2 C-1.34 1.34 -0.68 0.68 0 0 Z " fill="#E1E5E5" transform="translate(75,88)"/>
</svg>
